<?xml version="1.0" encoding="UTF-8"?>
<svg xmlns="http://www.w3.org/2000/svg" width="60" height="64" viewBox="0 0 60 64" fill="none">
  <g clip-path="url(#clip0_5_35)">
    <path d="M45.2127 62.8856H1.12366V1.11443H35.9024L45.2111 10.3483V62.8856H45.2127Z" fill="#E9EAF4"></path>
    <path d="M35.9024 10.3483H45.2127L45.2127 62.8856H35.9024V10.3483Z" fill="#DDDFED"></path>
    <path d="M18.0957 7.00816L9.25732 11.6458V25.5793H15.073V19.3544H21.1151V25.5793H26.9308V11.6888L18.0957 7.00816Z" fill="#DC363C"></path>
    <path d="M18.2273 61.7711H2.24731V2.22886H34.7787V10.3483C34.7787 10.9644 35.2812 11.4627 35.9024 11.4627H40.2365C40.8577 11.4627 41.3602 10.9644 41.3602 10.3483C41.3602 9.73214 40.8577 9.23383 40.2365 9.23383H37.0261V3.80498L44.089 10.8099V26.4279C44.089 27.044 44.5915 27.5423 45.2127 27.5423C45.8339 27.5423 46.3363 27.044 46.3363 26.4279V10.3483C46.3363 10.0521 46.2176 9.76876 46.0073 9.5602L36.697 0.326368C36.4867 0.117811 36.201 0 35.9024 0H1.12366C0.502435 0 0 0.498308 0 1.11443V62.8856C0 63.5017 0.502435 64 1.12366 64H18.2273C18.8485 64 19.351 63.5017 19.351 62.8856C19.351 62.2695 18.8469 61.7711 18.2273 61.7711Z" fill="#231F20"></path>
    <path d="M23.1682 61.7711H22.616C21.9948 61.7711 21.4923 62.2695 21.4923 62.8856C21.4923 63.5017 21.9948 64 22.616 64H23.1682C23.7894 64 24.2918 63.5017 24.2918 62.8856C24.2918 62.2695 23.7878 61.7711 23.1682 61.7711Z" fill="#231F20"></path>
    <path d="M40.5575 61.7711H27.5745C26.9533 61.7711 26.4509 62.2695 26.4509 62.8856C26.4509 63.5017 26.9533 64 27.5745 64H40.5575C41.1788 64 41.6812 63.5017 41.6812 62.8856C41.6812 62.2695 41.1788 61.7711 40.5575 61.7711Z" fill="#231F20"></path>
    <path d="M21.1167 26.6937H26.9324C27.5536 26.6937 28.0561 26.1954 28.0561 25.5793V13.5387L28.8651 13.9638C29.4093 14.2615 30.0915 14.0641 30.3917 13.526C30.6919 12.9863 30.4928 12.3097 29.9502 12.0119C29.939 12.0056 29.9294 12.0008 29.9181 11.9944L18.5532 6.02269C18.2225 5.84756 17.826 5.84756 17.4953 6.02269L6.27963 11.9944C5.73225 12.2858 5.52678 12.9608 5.82054 13.5037C6.11429 14.0466 6.79491 14.2503 7.34229 13.959L18.0299 8.27065L25.8088 12.359V24.4649H22.2404V19.3544C22.2404 18.7383 21.7379 18.24 21.1167 18.24H15.073C14.4518 18.2384 13.9478 18.7367 13.9478 19.3528V24.4649H10.381V16.2913C10.381 15.6752 9.87854 15.1769 9.25732 15.1769C8.6361 15.1769 8.13366 15.6752 8.13366 16.2913V25.5793C8.13366 26.1954 8.6361 26.6937 9.25732 26.6937H15.073C15.6943 26.6937 16.1967 26.1954 16.1967 25.5793V20.4689H19.9914V25.5793C19.993 26.1938 20.4955 26.6937 21.1167 26.6937Z" fill="#231F20"></path>
    <path d="M32.0226 31.4205C32.0226 30.8044 31.5201 30.3061 30.8989 30.3061H6.72267C6.10145 30.3045 5.59902 30.8028 5.59741 31.4189C5.5958 32.035 6.09824 32.5333 6.71946 32.5349C6.72107 32.5349 6.72107 32.5349 6.72267 32.5349H30.8989C31.5201 32.5349 32.0226 32.035 32.0226 31.4205Z" fill="#231F20"></path>
    <path d="M6.72267 37.7839H18.2273C18.8485 37.7839 19.351 37.2856 19.351 36.6695C19.351 36.0533 18.8485 35.555 18.2273 35.555H6.72267C6.10145 35.555 5.59902 36.0533 5.59902 36.6695C5.59902 37.2856 6.10145 37.7839 6.72267 37.7839Z" fill="#231F20"></path>
    <path d="M26.9324 40.8056H6.72267C6.10145 40.8056 5.59902 41.3039 5.59902 41.92C5.59902 42.5361 6.10145 43.0344 6.72267 43.0344H26.9324C27.5536 43.0344 28.0561 42.5361 28.0561 41.92C28.0561 41.3039 27.5536 40.8056 26.9324 40.8056Z" fill="#231F20"></path>
    <path d="M6.72267 48.2834H18.2273C18.8485 48.2834 19.351 47.7851 19.351 47.169C19.351 46.5528 18.8485 46.0545 18.2273 46.0545H6.72267C6.10145 46.0545 5.59902 46.5528 5.59902 47.169C5.59902 47.7851 6.10145 48.2834 6.72267 48.2834Z" fill="#231F20"></path>
    <path d="M28.0561 52.4179C28.0561 51.8018 27.5536 51.3035 26.9324 51.3035H6.72267C6.10145 51.3035 5.59902 51.8018 5.59902 52.4179C5.59902 53.034 6.10145 53.5323 6.72267 53.5323H26.9324C27.5536 53.5323 28.0561 53.034 28.0561 52.4179Z" fill="#231F20"></path>
    <path d="M6.81096 56.554C6.18974 56.554 5.6873 57.0523 5.6873 57.6685C5.6873 58.2846 6.18974 58.7829 6.81096 58.7829H18.2273C18.8485 58.7829 19.351 58.2846 19.351 57.6685C19.351 57.0523 18.8485 56.554 18.2273 56.554H6.81096Z" fill="#231F20"></path>
    <path d="M41.0905 57.8627C34.5508 55.6068 31.0932 48.519 33.3694 42.0346C34.8462 37.8253 38.4804 34.7208 42.898 33.8993L41.8433 35.3958C41.4838 35.8973 41.6025 36.593 42.1098 36.9496C42.6154 37.3063 43.3169 37.1885 43.6765 36.6854C43.6797 36.6806 43.6829 36.6774 43.6845 36.6726L46.1341 33.1988C46.4888 32.6957 46.3669 32.0032 45.8612 31.6498L42.4485 29.2633C41.9413 28.9083 41.2398 29.0277 40.8818 29.5307C40.5238 30.0338 40.6442 30.7296 41.1515 31.0846L42.1307 31.7692C34.1415 33.4599 29.0465 41.2529 30.7496 49.1765C31.8283 54.1914 35.469 58.2846 40.3521 59.9705C40.9251 60.2046 41.5833 59.9339 41.8193 59.364C42.0552 58.794 41.7823 58.1429 41.2077 57.9089C41.1691 57.8929 41.1306 57.8802 41.0905 57.8691V57.8627Z" fill="#231F20"></path>
    <path d="M60 46.1118C60 39.8504 55.9934 34.2782 50.0252 32.2388C49.4376 32.0382 48.7988 32.3487 48.5965 32.9298C48.3942 33.5108 48.7073 34.1461 49.2932 34.3467C55.8409 36.5803 59.3226 43.6569 57.0705 50.1508C55.6033 54.3793 51.961 57.5013 47.529 58.326L48.5853 56.8279C48.9368 56.3216 48.8084 55.6275 48.2979 55.2772C47.7923 54.9317 47.0988 55.0527 46.7441 55.5495L44.2945 59.0233C43.9397 59.5264 44.0617 60.2189 44.5674 60.5723L47.9785 62.962C48.4857 63.317 49.1872 63.1976 49.5452 62.6945C49.9031 62.1914 49.7828 61.4957 49.2755 61.1407L48.2771 60.4402C55.1009 59.001 59.9856 53.0308 60 46.1118Z" fill="#231F20"></path>
    <path d="M51.7941 42.6539C52.189 42.1795 52.1216 41.4758 51.6432 41.0842C51.1649 40.6925 50.4553 40.7594 50.0605 41.2338L43.4534 49.1558L39.6779 45.5658C39.2381 45.1327 38.5253 45.1343 38.0887 45.5721C37.6521 46.0084 37.6537 46.7152 38.0951 47.1483C38.1048 47.1578 38.1128 47.1658 38.1224 47.1737L42.7711 51.5964C42.9798 51.7954 43.2591 51.9069 43.5481 51.9069H43.6123C43.9237 51.8894 44.2142 51.7429 44.4133 51.5057L51.7941 42.6539Z" fill="#231F20"></path>
  </g>
  <defs>
    <clipPath id="clip0_5_35">
      <rect width="60" height="64" fill="white"></rect>
    </clipPath>
  </defs>
</svg>
